# xmcd
#
# Track frame offsets: 
#        150
#        9473
#        21742
#        34708
#        44635
#        56231
#        66802
#        77298
#        92905
#        107934
#        121520
#        131520
#
# Disc length: 1934 seconds
#
# Revision: 0
# Processed by: cddbd v1.5.2PL0 Copyright (c) Steve Scherf et al.
# Submitted via: ExactAudioCopyFreeDBPlugin 1.0
#
DISCID=9e078c0c
DTITLE=Patsy Cline - The Patsy Cline Story (2 of 2)
DYEAR=1900
DGENRE=Oldies
TTITLE0=Back In Baby's Arms
TTITLE1=Crazy
TTITLE2=You're Stronger Than Me
TTITLE3=Seven Lonely Days
TTITLE4=Sweet Dreams Of You
TTITLE5=Your Cheatin' Heart
TTITLE6=San Antonio Rose
TTITLE7=Why Can't He Be You
TTITLE8=The Wayward Wind
TTITLE9=So Wrong
TTITLE10=I Love You So Much It Hurts
TTITLE11=You Belong To Me
EXTD=
EXTT0=
EXTT1=
EXTT2=
EXTT3=
EXTT4=
EXTT5=
EXTT6=
EXTT7=
EXTT8=
EXTT9=
EXTT10=
EXTT11=
PLAYORDER=
